<?xml version="1.0" encoding="utf-8"?>
<!-- Generator: Adobe Illustrator 24.3.0, SVG Export Plug-In . SVG Version: 6.00 Build 0)  -->
<svg version="1.1" id="Layer_1" xmlns="http://www.w3.org/2000/svg" xmlns:xlink="http://www.w3.org/1999/xlink" x="0px" y="0px"
	 viewBox="0 0 300 100" style="enable-background:new 0 0 300 100;" xml:space="preserve">
<style type="text/css">
	.st0{fill:#FFFFFF;fill-opacity:0.8;}
	.st1{fill:#595959;}
	.st2{fill:#545567;}
	.st3{fill:#23BDEE;}
	.st4{clip-path:url(#SVGID_2_);}
	.st5{fill:#FFFFFF;}
</style>
<g>
	<path class="st0" d="M20,0h260c11,0,20,9,20,20v60c0,11-9,20-20,20H20C9,100,0,91,0,80V20C0,9,9,0,20,0z"/>
</g>
<path class="st1" d="M123.1,41.5V44h-11.4v-2.3l5.8-6.2c0.7-0.7,1.2-1.4,1.5-2c0.3-0.6,0.5-1.2,0.5-1.8c0-0.8-0.2-1.3-0.7-1.7
	c-0.4-0.4-1.1-0.6-1.9-0.6c-1.5,0-3,0.6-4.6,1.8l-1-2.3c0.7-0.6,1.5-1.1,2.6-1.4c1.1-0.4,2.1-0.6,3.2-0.6c1.7,0,3,0.4,4,1.2
	c1,0.8,1.5,2,1.5,3.4c0,1-0.2,1.9-0.6,2.8c-0.4,0.8-1.1,1.8-2.1,2.9l-4.2,4.4H123.1z M133,33.2c1.1,0,2,0.2,2.8,0.7
	c0.8,0.4,1.4,1.1,1.9,1.9c0.4,0.8,0.7,1.8,0.7,2.8c0,1.1-0.3,2.1-0.8,3c-0.5,0.8-1.2,1.5-2.2,2c-0.9,0.5-2,0.7-3.3,0.7
	c-1.1,0-2.1-0.2-3.1-0.5c-1-0.4-1.9-0.8-2.5-1.4l1-2.3c1.5,1.2,3.1,1.8,4.7,1.8c1.1,0,1.9-0.3,2.4-0.8c0.6-0.5,0.8-1.3,0.8-2.3
	c0-0.9-0.3-1.7-0.9-2.2c-0.6-0.6-1.3-0.8-2.3-0.8c-0.7,0-1.3,0.1-1.9,0.4c-0.6,0.2-1.1,0.6-1.6,1.1H127v-10h10.6v2.4H130V34
	C130.8,33.5,131.8,33.2,133,33.2z M147,44.2c-2,0-3.5-0.7-4.6-2.2c-1.1-1.5-1.6-3.6-1.6-6.5c0-2.8,0.5-4.9,1.6-6.4
	c1.1-1.5,2.6-2.2,4.6-2.2s3.5,0.7,4.6,2.2c1.1,1.5,1.6,3.6,1.6,6.4c0,2.8-0.5,5-1.6,6.5C150.5,43.5,149,44.2,147,44.2z M147,41.8
	c1.1,0,1.9-0.5,2.4-1.5c0.5-1,0.7-2.6,0.7-4.8c0-2.2-0.2-3.7-0.7-4.7c-0.5-1-1.3-1.5-2.4-1.5s-1.9,0.5-2.4,1.5
	c-0.5,1-0.7,2.5-0.7,4.7c0,2.2,0.2,3.8,0.7,4.8C145.1,41.3,145.9,41.8,147,41.8z M168,44h-3.7l-5-5.4V44h-3V27.1h3v10.3l4.7-5.1h3.6
	l-5.3,5.6L168,44z"/>
<path class="st2" d="M110.2,74l6.3-14.1h1.7l6.3,14.1h-2.1l-1.5-3.4h-7.1l-1.5,3.4H110.2z M117.3,62.2l-2.8,6.7h5.7L117.3,62.2
	L117.3,62.2z M129.8,74.2c-0.8,0-1.5-0.1-2.2-0.3c-0.7-0.2-1.3-0.5-1.7-0.9l0.6-1.4c0.5,0.3,1,0.6,1.6,0.8c0.6,0.2,1.2,0.3,1.8,0.3
	c0.7,0,1.2-0.1,1.6-0.4c0.4-0.3,0.5-0.6,0.5-1c0-0.3-0.1-0.6-0.4-0.8c-0.2-0.2-0.6-0.4-1.1-0.5l-1.9-0.4c-1.7-0.3-2.5-1.2-2.5-2.6
	c0-0.9,0.4-1.7,1.1-2.2c0.7-0.5,1.7-0.8,2.9-0.8c0.7,0,1.3,0.1,1.9,0.3c0.6,0.2,1.1,0.5,1.6,0.9l-0.6,1.4c-0.4-0.3-0.9-0.6-1.4-0.8
	c-0.5-0.2-1-0.3-1.5-0.3c-0.7,0-1.2,0.1-1.6,0.4c-0.4,0.3-0.5,0.6-0.5,1c0,0.7,0.4,1.1,1.3,1.3l1.9,0.4c0.9,0.2,1.5,0.5,2,0.9
	c0.5,0.4,0.7,1,0.7,1.7c0,0.9-0.4,1.7-1.1,2.2C132,73.9,131,74.2,129.8,74.2z M139.9,74.2c-0.8,0-1.5-0.1-2.2-0.3
	c-0.7-0.2-1.3-0.5-1.7-0.9l0.6-1.4c0.5,0.3,1,0.6,1.6,0.8c0.6,0.2,1.2,0.3,1.8,0.3c0.7,0,1.2-0.1,1.6-0.4c0.4-0.3,0.5-0.6,0.5-1
	c0-0.3-0.1-0.6-0.4-0.8c-0.2-0.2-0.6-0.4-1.1-0.5l-1.9-0.4c-1.7-0.3-2.5-1.2-2.5-2.6c0-0.9,0.4-1.7,1.1-2.2c0.7-0.5,1.7-0.8,2.9-0.8
	c0.7,0,1.3,0.1,1.9,0.3c0.6,0.2,1.1,0.5,1.6,0.9l-0.6,1.4c-0.4-0.3-0.9-0.6-1.4-0.8s-1-0.3-1.5-0.3c-0.7,0-1.2,0.1-1.6,0.4
	c-0.4,0.3-0.5,0.6-0.5,1c0,0.7,0.4,1.1,1.3,1.3l1.9,0.4c0.9,0.2,1.5,0.5,2,0.9c0.5,0.4,0.7,1,0.7,1.7c0,0.9-0.4,1.7-1.1,2.2
	C142.1,73.9,141.1,74.2,139.9,74.2z M146.4,62v-2.1h2.4V62H146.4z M146.6,74v-9.8h2V74H146.6z M155.3,74.2c-0.8,0-1.5-0.1-2.2-0.3
	c-0.7-0.2-1.3-0.5-1.7-0.9l0.6-1.4c0.5,0.3,1,0.6,1.6,0.8c0.6,0.2,1.2,0.3,1.8,0.3c0.7,0,1.2-0.1,1.6-0.4c0.4-0.3,0.5-0.6,0.5-1
	c0-0.3-0.1-0.6-0.4-0.8c-0.2-0.2-0.6-0.4-1.1-0.5l-1.9-0.4c-1.7-0.3-2.5-1.2-2.5-2.6c0-0.9,0.4-1.7,1.1-2.2s1.7-0.8,2.9-0.8
	c0.7,0,1.3,0.1,1.9,0.3c0.6,0.2,1.1,0.5,1.6,0.9l-0.6,1.4c-0.4-0.3-0.9-0.6-1.4-0.8s-1-0.3-1.5-0.3c-0.7,0-1.2,0.1-1.6,0.4
	c-0.4,0.3-0.5,0.6-0.5,1c0,0.7,0.4,1.1,1.3,1.3l1.9,0.4c0.9,0.2,1.5,0.5,2,0.9c0.5,0.4,0.7,1,0.7,1.7c0,0.9-0.4,1.7-1.1,2.2
	C157.5,73.9,156.5,74.2,155.3,74.2z M166,74.2c-1.2,0-2.1-0.3-2.7-0.9c-0.6-0.6-0.9-1.5-0.9-2.7v-4.7h-1.9v-1.6h1.9v-2.9h2v2.9h3
	v1.6h-3v4.6c0,0.7,0.1,1.2,0.4,1.6c0.3,0.4,0.8,0.5,1.5,0.5c0.2,0,0.4,0,0.6-0.1c0.2-0.1,0.4-0.1,0.6-0.2l0.3,1.5
	c-0.2,0.1-0.5,0.2-0.8,0.3C166.7,74.1,166.3,74.2,166,74.2z M174,74.2c-1.6,0-2.9-0.4-3.8-1.3c-0.9-0.9-1.4-2.1-1.4-3.7
	c0-1,0.2-1.9,0.6-2.6c0.4-0.8,1-1.4,1.7-1.8c0.7-0.4,1.5-0.6,2.5-0.6c1.3,0,2.4,0.4,3.2,1.3c0.8,0.9,1.2,2,1.2,3.5v0.7h-7.2
	c0.1,2,1.2,3,3.2,3c0.6,0,1.1-0.1,1.6-0.3c0.5-0.2,1.1-0.5,1.5-0.9l0.6,1.4c-0.4,0.4-1,0.7-1.7,0.9C175.4,74.1,174.7,74.2,174,74.2z
	 M173.7,65.5c-0.8,0-1.5,0.3-2,0.8c-0.5,0.5-0.8,1.2-0.9,2.1h5.5c0-0.9-0.3-1.6-0.7-2.1C175.1,65.7,174.5,65.5,173.7,65.5z
	 M184.3,74.2c-0.9,0-1.6-0.2-2.3-0.6c-0.6-0.4-1.1-1-1.5-1.8s-0.5-1.7-0.5-2.7s0.2-1.9,0.5-2.7c0.4-0.8,0.9-1.3,1.5-1.8
	s1.4-0.6,2.3-0.6c0.7,0,1.4,0.2,2,0.5c0.6,0.3,1,0.8,1.3,1.3v-5.9h2V74h-2v-1.7c-0.3,0.6-0.7,1-1.3,1.4
	C185.7,74,185.1,74.2,184.3,74.2z M184.8,72.6c0.8,0,1.5-0.3,2-0.9c0.5-0.6,0.8-1.5,0.8-2.6s-0.3-2-0.8-2.6c-0.5-0.6-1.2-0.9-2-0.9
	c-0.8,0-1.5,0.3-2,0.9c-0.5,0.6-0.8,1.4-0.8,2.6s0.3,2,0.8,2.6C183.3,72.3,184,72.6,184.8,72.6z"/>
<path class="st3" d="M36,25h34c4.4,0,8,3.6,8,8v34c0,4.4-3.6,8-8,8H36c-4.4,0-8-3.6-8-8V33C28,28.6,31.6,25,36,25z"/>
<g>
	<defs>
		<rect id="SVGID_1_" x="39.2" y="36.2" width="27.5" height="27.5"/>
	</defs>
	<clipPath id="SVGID_2_">
		<use xlink:href="#SVGID_1_"  style="overflow:visible;"/>
	</clipPath>
	<g class="st4">
		<path class="st5" d="M46.1,36.2c-0.5,0-1,0.4-1,1v2h2v-2C47.1,36.7,46.7,36.2,46.1,36.2z"/>
		<path class="st5" d="M59.9,36.2c-0.5,0-1,0.4-1,1v2h2v-2C60.9,36.7,60.4,36.2,59.9,36.2z"/>
		<path class="st5" d="M63.8,39.2h-2.9v3.9c0,0.5-0.4,1-1,1c-0.5,0-1-0.4-1-1v-3.9H47.1v3.9c0,0.5-0.4,1-1,1c-0.5,0-1-0.4-1-1v-3.9
			h-2.9c-1.6,0-2.9,1.3-2.9,2.9v18.7c0,1.6,1.3,2.9,2.9,2.9h21.6c1.6,0,2.9-1.3,2.9-2.9V42.1C66.8,40.5,65.4,39.2,63.8,39.2z
			 M64.8,60.8c0,0.5-0.4,1-1,1H42.2c-0.5,0-1-0.4-1-1V48h23.6V60.8z"/>
		<path class="st5" d="M47.1,50h-2c-0.5,0-1,0.4-1,1c0,0.5,0.4,1,1,1h2c0.5,0,1-0.4,1-1C48.1,50.4,47.6,50,47.1,50z"/>
		<path class="st5" d="M54,50h-2c-0.5,0-1,0.4-1,1c0,0.5,0.4,1,1,1h2c0.5,0,1-0.4,1-1C55,50.4,54.5,50,54,50z"/>
		<path class="st5" d="M60.9,50h-2c-0.5,0-1,0.4-1,1c0,0.5,0.4,1,1,1h2c0.5,0,1-0.4,1-1C61.8,50.4,61.4,50,60.9,50z"/>
		<path class="st5" d="M47.1,53.9h-2c-0.5,0-1,0.4-1,1c0,0.5,0.4,1,1,1h2c0.5,0,1-0.4,1-1C48.1,54.4,47.6,53.9,47.1,53.9z"/>
		<path class="st5" d="M54,53.9h-2c-0.5,0-1,0.4-1,1c0,0.5,0.4,1,1,1h2c0.5,0,1-0.4,1-1C55,54.4,54.5,53.9,54,53.9z"/>
		<path class="st5" d="M60.9,53.9h-2c-0.5,0-1,0.4-1,1c0,0.5,0.4,1,1,1h2c0.5,0,1-0.4,1-1C61.8,54.4,61.4,53.9,60.9,53.9z"/>
		<path class="st5" d="M47.1,57.9h-2c-0.5,0-1,0.4-1,1c0,0.5,0.4,1,1,1h2c0.5,0,1-0.4,1-1C48.1,58.3,47.6,57.9,47.1,57.9z"/>
		<path class="st5" d="M54,57.9h-2c-0.5,0-1,0.4-1,1c0,0.5,0.4,1,1,1h2c0.5,0,1-0.4,1-1C55,58.3,54.5,57.9,54,57.9z"/>
		<path class="st5" d="M60.9,57.9h-2c-0.5,0-1,0.4-1,1c0,0.5,0.4,1,1,1h2c0.5,0,1-0.4,1-1C61.8,58.3,61.4,57.9,60.9,57.9z"/>
	</g>
</g>
</svg>
